<?xml version="1.0" encoding="utf-8"?>
<!-- Svg Vector Icons : http://www.onlinewebfonts.com/icon -->
<!DOCTYPE svg PUBLIC "-//W3C//DTD SVG 1.1//EN" "http://www.w3.org/Graphics/SVG/1.1/DTD/svg11.dtd">
<svg version="1.1" xmlns="http://www.w3.org/2000/svg" xmlns:xlink="http://www.w3.org/1999/xlink" x="0px" y="0px" viewBox="0 0 256 256" enable-background="new 0 0 256 256" xml:space="preserve">
<metadata> Svg Vector Icons : http://www.onlinewebfonts.com/icon </metadata>
<g><g><g><path fill="#FFFFFF" d="M165.6,10.9c-15.8,3.3-30.1,12.5-40.1,25.8c-3.8,5-8.5,14.5-10.3,20.8c-3,10.2-3.5,21.7-1.4,31.8l1,4.8l-51.9,51.9c-47.2,47.3-52,52.1-52.4,54c-0.4,1.4-0.5,6.8-0.4,17.3c0.2,14.2,0.2,15.5,1.2,18.3c1.4,4.3,2.7,6,5.6,7.5c5,2.5,8.1,2.9,22.8,2.8c17.9-0.1,16.6,0.3,24.9-8l6.5-6.5h9.8h9.8v-9.8v-9.8l1.3-1.2l1.3-1.2h9.8h9.8v-9.8v-9.8l1.3-1.2l1.3-1.2h9.8h9.8v-9.8v-9.8l13.3-13.3l13.3-13.3l4.8,1c6.3,1.4,18.4,1.5,24.6,0.3c27.5-5.4,48-25.4,53.9-52.6c1.4-6.8,1.4-19.7,0-26.5c-5.1-23.6-21.1-42-43.6-49.9c-7.4-2.6-12.1-3.3-22.3-3.2C171.8,10,168.9,10.3,165.6,10.9z M187.4,26.2c6.7,1,14.5,4.1,20.7,8.3c3.6,2.4,10.7,9.5,13.1,13.1c6,9,9,18.6,9,29.3c0,23.5-15.5,43.6-38.3,49.7c-4.1,1.1-5.2,1.2-13,1.2c-9.2,0-12-0.5-18.6-3.1l-2.9-1.2l-18.6,18.6l-18.6,18.6v5.9v5.9h-5.9h-5.9l-5.2,5.2l-5.2,5.2v5.9v5.9h-5.9h-5.9l-5.2,5.2l-5.2,5.2v5.9v5.9H70h-5.9l-5.3,5.4c-6.5,6.6-9.5,8.3-15.6,9c-7.4,0.9-14.1-0.2-16.3-2.7c-0.8-0.9,1-2.7,55.5-57.2c52-52,56.3-56.4,56.3-57.8c0-2-1.8-3.8-3.8-3.8c-1.4,0-5.8,4.2-56.1,54.5c-52.4,52.4-54.6,54.5-54.6,53c0-3.4,1-9.5,1.9-11.5C26.9,204,38,192.5,79.6,151l52.6-52.6l-1.2-2.9c-2.7-6.6-3.1-9.4-3.1-18.6c0-8,0-8.9,1.2-13.2c4.8-17.2,17.6-30.7,34.2-35.9C171.2,25.4,178.7,24.9,187.4,26.2z"/><path fill="#FFFFFF" d="M187.2,46.9c-5.7,1-11,4.9-13.7,10.3c-1.3,2.6-1.4,3.1-1.4,7.8c0,4.7,0.1,5.3,1.4,8.1c1.8,3.8,5.1,7.2,9,9c2.8,1.3,3.4,1.4,7.8,1.4s5.1-0.1,8-1.5c16-7.6,13.2-31.3-4.1-35C190.7,46.4,190.7,46.4,187.2,46.9z M193.8,55.3c1.2,0.4,2.7,1.4,4,2.7c3.3,3.2,4.1,7.5,2.3,11.5c-1.9,4.2-4.9,6.2-9.7,6.2c-2.6,0-3.4-0.2-5.3-1.4c-4.5-2.8-6.4-8.4-4.4-13c1.3-3,2.5-4.2,5.4-5.5C188.6,54.6,190.9,54.5,193.8,55.3z"/></g></g></g>
</svg>